<svg xmlns="http://www.w3.org/2000/svg" xmlns:xlink="http://www.w3.org/1999/xlink" width="1015.187" height="458.748" viewBox="0 0 1015.187 458.748"><defs><style>.a{fill:none;}.b{fill:#bed2fa;}.c{fill:#010117;}.d{fill:#6d89cf;}.e{fill:#93b3f4;}.f{fill:#ed6966;}.g{fill:#ea8888;}.h{fill:#e75755;}.i{fill:#0b0754;}.j{fill:#ffc300;}.k{fill:#3662c1;}.l{fill:#fdb3b1;}.m{fill:#fd0;}.n{fill:#ffcc02;}.o{fill:#232065;}.p{fill:#fc9290;}.q{fill:#fdacab;}.r{fill:#120e59;}.s{clip-path:url(#a);}.t{fill:#fb867e;}.u{fill:#2b276a;}.v{fill:#15115b;}</style><clipPath id="a"><path class="a" d="M1966.879,850.491c-55.014,50.593-123.458,50.5-193.079,22.442h0c-40.746-16.408-83.845-44.885-107.27-81.582-31.683-48.961-20.632-91.078,3.8-143.753,32.429-69.961,84.913-111.435,162.171-102.878,99.127,10.974,161.706,83.071,178.83,178.83C2019.959,771.786,2001.762,818.418,1966.879,850.491Z" transform="translate(-1647.023 -543.609)"/></clipPath></defs><g transform="translate(-950.5 -537.814)"><path class="b" d="M1966.879,850.491c-55.014,50.593-123.458,50.5-193.079,22.442h0c-40.746-16.408-83.845-44.885-107.27-81.582-31.683-48.961-20.632-91.078,3.8-143.753,32.429-69.961,84.913-111.435,162.171-102.878,99.127,10.974,161.706,83.071,178.83,178.83C2019.959,771.786,2001.762,818.418,1966.879,850.491Z" transform="translate(-400.912 -3.336)"/><path class="b" d="M1011.331,1221.614s-60.6-204.575,50.606-266.542,178.24,36.9,217.345,88.5,208.01,153.767,310.434,57.687c107.906-101.22,161.44-129.948,238.428-132.393s45.215,80.24,109.981,112.219,33.338,134.5-26.713,141.895Z" transform="translate(-25.528 -228.79)"/><rect class="c" width="1015.187" height="2.693" rx="1.346" transform="translate(950.5 993.868)"/><g transform="translate(1166.997 835.593)"><g transform="translate(83.522 62.379)"><path class="d" d="M1694.073,1412.866s-10.931-12.752-.674-20.852c0,0,7.492-4.536,13.6-4.168,0,0-8.656,14.516-5.856,15.959s8.479-16.87,8.479-16.87,17.048-1.653,22.534.983c0,0-14.575,11.927-11.505,12.638s18.813-11,18.813-11,15.868,2.7,15.021,12.38-6.313,12.669-8.716,12.412-16.46-5.623-16.767-3.655,8.155,8.4,14.081,8.7c0,0-11.187,12.338-18.623,8.778s-8.069-9.2-12.7-11.322-8.591-2.111-6.678.048,10.3,4.257,12.953,8.946,5.028,7.85-2.664,6.693-20.2-6.786-20.745-13.232Z" transform="translate(-1675.598 -1386.424)"/><g transform="translate(0 15.703)"><path class="d" d="M1740.549,1423.5s-43.1-1.661-52.616,10.664a31.174,31.174,0,0,1-8.582,12.044l-1.01,2.752s7.468-7.875,10.141-8.352C1688.481,1440.607,1684.3,1425.337,1740.549,1423.5Z" transform="translate(-1669.458 -1423.423)"/><path class="d" d="M1667.3,1475.635s-9.251,6.842-9.893,19.066l1.678.15s2.954-12.639,8.295-17.582S1667.3,1475.635,1667.3,1475.635Z" transform="translate(-1657.41 -1452.851)"/></g></g><g transform="translate(0 27.756)"><path class="e" d="M1524.394,1349.873s17.388-9.738,9.274-22.952c0,0-6.491-8.114-13.447-10.2,0,0,3.71,19.706,0,20.17s-2.551-22.257-2.551-22.257-18.315-8.81-25.5-8.115c0,0,11.36,19.243,7.65,18.779s-16.46-19.938-16.46-19.938-18.779-3.478-21.793,7.651,1.854,16.692,4.637,17.388,20.634.464,20.17,2.782-12.519,6.028-19.243,3.942c0,0,7.419,18.315,17.156,17.388s12.751-6.955,18.779-7.418,10.432,1.159,7.419,2.782-13.215.532-18.083,4.671-8.81,6.689.232,8.544,25.27.7,28.516-6.26Z" transform="translate(-1460.615 -1304.845)"/><g transform="translate(9.529 11.643)"><path class="d" d="M1483.067,1332.278s48.686,15.765,54.25,33.385a36.994,36.994,0,0,0,4.637,16.924v3.478s-5.1-11.824-7.883-13.447C1534.071,1372.618,1544.968,1357.316,1483.067,1332.278Z" transform="translate(-1483.067 -1332.278)"/><path class="d" d="M1618.663,1447.881s7.508,11.4,3.228,25.281l-1.931-.52s1.875-15.286-2.054-22.975S1618.663,1447.881,1618.663,1447.881Z" transform="translate(-1559.776 -1397.572)"/></g></g><g transform="translate(76.374)"><path class="e" d="M1655.636,1298.8s-22.921-12.836-12.224-30.256c0,0,8.557-10.7,17.725-13.447,0,0-4.889,25.977,0,26.588s3.362-29.338,3.362-29.338,24.144-11.614,33.617-10.7c0,0-14.974,25.365-10.085,24.754s21.7-26.283,21.7-26.283,24.754-4.584,28.727,10.085-2.445,22-6.113,22.92-27.2.612-26.587,3.667,16.5,7.946,25.366,5.2c0,0-9.779,24.143-22.615,22.921s-16.808-9.168-24.754-9.779-13.752,1.528-9.779,3.668,17.419.7,23.838,6.157,11.613,8.818-.306,11.263-33.312.917-37.59-8.252Z" transform="translate(-1640.568 -1239.445)"/><g transform="translate(2.963 15.347)"><path class="d" d="M1739.295,1275.607s-64.177,20.781-71.512,44.008c0,0,.306,10.39-6.112,22.309v4.584s6.723-15.586,10.39-17.725C1672.061,1328.783,1657.7,1308.613,1739.295,1275.607Z" transform="translate(-1655.677 -1275.607)"/><path class="d" d="M1653.542,1427.994s-9.9,15.029-4.255,33.325l2.546-.684s-2.471-20.151,2.707-30.286S1653.542,1427.994,1653.542,1427.994Z" transform="translate(-1647.548 -1361.677)"/></g></g><path class="f" d="M1613.361,1542.971a44.9,44.9,0,0,0,44.9-44.9h-89.8A44.9,44.9,0,0,0,1613.361,1542.971Z" transform="translate(-1522.691 -1388.309)"/><path class="g" d="M1631.83,1542.628a44.931,44.931,0,0,1-50.474-44.555h11.154A44.906,44.906,0,0,0,1631.83,1542.628Z" transform="translate(-1530.112 -1388.309)"/><path class="f" d="M1658.038,1601.733H1567a5.539,5.539,0,0,1,5.539-5.539H1652.5a5.54,5.54,0,0,1,5.539,5.539Z" transform="translate(-1521.851 -1444.786)"/><rect class="h" width="92.293" height="1.377" transform="translate(44.296 109.764)"/></g><g transform="translate(1632.335 542.219)"><path class="i" d="M2646.085,1549.564s-1.307,21.068-5.383,21.371c-.542.04-20.674.04-20.674.04l-25.7-.149s.169-6.192,7.68-7.5,20.086-6.589,24.637-16.517C2631.433,1536.362,2646.085,1549.564,2646.085,1549.564Z" transform="translate(-2578.508 -1120.671)"/><path class="g" d="M2683.533,971.667s-12.132,6.9-15.529,6.9-16.728-2.577-20.444-.678-10.443,9.539-11.7,12.035c-2.27,4.487,9.136,2.505,14.528-1.318a3.4,3.4,0,0,1,2.693-.556c2.792.609,8.593,1.663,11.395.626,3.767-1.394,23.607-2.942,23.607-2.942Z" transform="translate(-2602.24 -791.941)"/><path class="j" d="M2823.491,733.355s-12.577,89.388-33.4,97.394c-10.276,3.951-55.691,12.906-69.124,13.806,0,0-3.292-2.67-2.49-13.536,0,0,47.58-17.468,54.341-26.968,10.059-14.138-6.245-57.758,6.377-71.037S2813.078,714.028,2823.491,733.355Z" transform="translate(-2649.893 -647.588)"/><path class="k" d="M2782.963,1122.83a156.713,156.713,0,0,1-12.286,17.578c-13.517,17.065-28.231,31.135-30.795,44.434a60.284,60.284,0,0,1-2.376,8.513c-1.071,3.046-2.394,6.249-3.922,9.562-5.736,12.459-14.314,26.421-22.878,39.112-14.806,21.938-26.924,36.659-26.924,36.659s-3.881,3.028-14.987,3.024c-3.091,0-13.494-1.693-13.494-1.693,1.022-2.559,13.3-31.684,28.2-68.7,6.049-15.028,12.482-31.013,18.688-46.428q1.24-3.087,2.472-6.14c1.9-4.718,3.764-9.361,5.588-13.883,13.987-34.76,25.129-62.439,25.129-62.439s55.906-21.178,61.712-7.455C2801.878,1086.286,2797.978,1097.37,2782.963,1122.83Z" transform="translate(-2613.604 -848.738)"/><path class="i" d="M2837.448,1416.938s17.759,11.411,16.036,15.118c-.229.493-10.043,18.07-10.043,18.07l-12.658,22.365s-5.325-3.165-2.806-10.362,4.039-20.749-2.411-29.562C2818.779,1423.3,2837.448,1416.938,2837.448,1416.938Z" transform="translate(-2710.751 -1048.234)"/><path class="d" d="M2706.513,1242.923s12.5-11.61,14.456-18.791c0,0-45.732-54.794-55.652-67.076-.455-.562-.339-1.182.262-1.86,7.489-8.445,90.7-25.612,101.576-42.532a52.437,52.437,0,0,0,7.027-16.2c2.465-10.325.516-17.456.516-17.456l-83.1-2.4s-69.19,43.083-77.026,72.458S2706.513,1242.923,2706.513,1242.923Z" transform="translate(-2589.904 -852.341)"/><path class="k" d="M2735.354,1160.332c7.49-8.445,90.7-25.612,101.575-42.532a52.435,52.435,0,0,0,7.027-16.2v-10.517l-35.32-5.555s-10.016,30.82-39.681,42.378C2741.171,1138.731,2735.908,1157.94,2735.354,1160.332Z" transform="translate(-2659.681 -857.478)"/><path class="l" d="M2850.233,684.4c16.813,4.346,44.681-11.23,44.681-11.23s-10.822-7.274-14.832-23.25c-.2-.805-.386-1.629-.552-2.477-1.76-.373-5.081-1.079-8.633-1.83l-12.84,11.5a110.316,110.316,0,0,0,1.9,12.987q.417,2.15.967,4.608A39.608,39.608,0,0,0,2850.233,684.4Z" transform="translate(-2725.804 -604.268)"/><path class="m" d="M2880.2,782.435c-2.407,32.387.76,81.644-1.971,90.175-2.357,7.36-29.22,2.984-39.942.527-3.968-.909-8.775-2.208-13.741-3.745-13.848-4.288-28.937-10.411-30.556-14.956a3.914,3.914,0,0,1-.15-.523,4.157,4.157,0,0,1,.03-1.906c.54-2.316,2.619-4.823,2.864-10.56.274-6.406.233-13.948.473-22.059.013-.913.025-1.909.125-2.818l0-.332c0-.175.009-.345.012-.52.233-9.045.706-18.555,1.254-27.986.349-5.924.751-11.79,1.217-17.41,1.207-14.508,2.835-27.41,4.989-35.567,3.521-13.3,11.283-21.968,18.348-28.323l5.111-4.384a29.546,29.546,0,0,0,18.542-2.47c6.6-3.134,8.879-5.38,10.03-4.533C2872.078,706.8,2883.041,742.841,2880.2,782.435Z" transform="translate(-2693.287 -632.616)"/><path class="j" d="M2824.675,936.564c-13.848-4.288-28.937-10.411-30.556-14.956a3.88,3.88,0,0,1-.15-.523q.012-.952.03-1.906c.54-2.316,2.619-4.823,2.864-10.56.274-6.406.233-13.948.473-22.059.013-.913.026-1.91.125-2.819l0-.332c0-.175.008-.345.012-.519l55.985-71.325S2891.094,889.929,2824.675,936.564Z" transform="translate(-2693.419 -699.787)"/><path class="g" d="M2868.67,657.119a110.383,110.383,0,0,0,1.9,12.987c12.54-4.053,18.226-15.379,20.126-20.183-.2-.805-.386-1.629-.551-2.477-1.761-.373-5.082-1.079-8.634-1.83Z" transform="translate(-2736.416 -604.268)"/><path class="l" d="M2844.139,623.831s27.345-4.564,24.24-21.549-1.664-29.014-19.255-26.818-19.789,9.295-20.132,15.216S2836.946,624.58,2844.139,623.831Z" transform="translate(-2713.572 -563.741)"/><path class="h" d="M2647.135,941.7l-68.265,1.458-19.407-59.731-2.411.784,20.517,63.144,69.656-1.487Z" transform="translate(-2557.051 -741.153)"/><path class="l" d="M2700.422,1021.211s-22.381,5.9-30.774,5.282-15.374-4.611-16.43-6.7-3.275-5.78,2.439-5.1,13.515,1.9,13.757.8-4.658-.993-4.658-.993-1.48-2.154.385-2.232,7.3-1.553,9.324-.544,3.886,4.741,5.363,4.585,18.729-7.771,18.729-7.771Z" transform="translate(-2611.644 -813.167)"/><path class="n" d="M2826.055,744.806s-2.646,90.23-22.462,100.484c-9.777,5.059-53.927,18.966-67.18,21.341,0,0-3.565-2.291-3.967-13.18,0,0,45.365-22.607,51.035-32.794,8.44-15.161-12.575-56.718-1.492-71.307S2813.574,726.746,2826.055,744.806Z" transform="translate(-2658.007 -655.371)"/><path class="o" d="M2853.938,593.847s.313-5.828-3.283-9.166c0,0,1.252-5.843-1.059-6.806s-2.793,3.949-3.853,3.178-5.779-4.43-7.8-9.824-20.533,1.139-22.691,2.111-9.092-2.592-10.44-5.482a40.571,40.571,0,0,0,5.586-5.393c1.734-2.311,13.869-17.914,30.82-13.483s19.262,12.521,18.3,19.455S2860.88,591.52,2853.938,593.847Z" transform="translate(-2699.659 -548.193)"/><g transform="translate(123.723 291.328)"><path class="p" d="M2961.839,1391.173c-10.679-10.909-29.492-18.418-51.224-19.3V1335.8h33.576c.832,0,1.575-.726,2.046-1.844a7.391,7.391,0,0,0,.525-2.816v-1.627c0-2.562-1.157-4.659-2.571-4.659h-33.576v-85.915a4.327,4.327,0,0,0-4.314-4.314h0a4.326,4.326,0,0,0-4.314,4.314v85.915H2868.41c-1.414,0-2.57,2.1-2.57,4.659v1.627a7.311,7.311,0,0,0,.559,2.894c.471,1.075,1.2,1.766,2.011,1.766h33.577v36.072c-21.732.884-40.546,8.393-51.225,19.3q-1.164,1.189-2.193,2.427h115.463C2963.349,1392.773,2962.615,1391.966,2961.839,1391.173Z" transform="translate(-2848.569 -1234.625)"/><path class="q" d="M2929.6,1558.049c-15.163,1.4-28.2,8.723-35.739,19.143q-.862,1.189-1.623,2.426h-10.682q.761-1.239,1.622-2.426c8.417-11.627,23.666-19.39,41.08-19.39Q2926.972,1557.8,2929.6,1558.049Z" transform="translate(-2867.558 -1420.643)"/></g><path class="h" d="M12.2,0H112.493A12.205,12.205,0,0,1,124.7,12.205v7.621a12.205,12.205,0,0,1-12.205,12.205H12.2A12.2,12.2,0,0,1,0,19.827V12.2A12.2,12.2,0,0,1,12.2,0Z" transform="translate(117.613 262.445)"/></g><g transform="translate(993.598 537.814)"><g transform="translate(0)"><path class="l" d="M1595.52,762.138c-1.917,5.155-5.24,11.138-8.728,12.626a13.514,13.514,0,0,0-5.6,4.07L1578,776.98l-3.813-2.216s.09-.423.277-1.113.47-1.644.857-2.7a3.693,3.693,0,0,0,.453-3.394,7.877,7.877,0,0,1,.65-6.583c1.224-1.777,2.4-6.156,3.14-6.026,1.783.306-.877,6.326-.113,7.442a1.317,1.317,0,0,0,1.713.587c.01-.006.02-.01.03-.017,5-2.2,11.071-14.058,13.757-12.458C1595.949,751.1,1596.337,759.942,1595.52,762.138Z" transform="translate(-1352.583 -660.148)"/><g transform="translate(225.212 84.536)"><path class="o" d="M1583.112,761.632l6.268,4.4a.987.987,0,0,0,1.37-.239l16.055-22.845a.987.987,0,0,0-.239-1.371l-6.267-4.4a.987.987,0,0,0-1.371.239l-16.055,22.845A.987.987,0,0,0,1583.112,761.632Z" transform="translate(-1582.695 -736.999)"/><path class="r" d="M1596.766,771.191l3.675,2.582a.75.75,0,0,0,1.043-.183l16.325-23.229a.751.751,0,0,0-.182-1.043l-3.674-2.582a.751.751,0,0,0-1.043.182l-16.325,23.23A.751.751,0,0,0,1596.766,771.191Z" transform="translate(-1590.612 -742.526)"/></g><path class="r" d="M1348.292,717.8s31.891,55.623,43.46,65.858l42.422-31.627a15.484,15.484,0,0,1,8.851,8.067s-25.761,52.484-51.125,54.709-60.963-62.908-60.963-62.908Z" transform="translate(-1212.574 -641.412)"/><g transform="translate(30.906 204.928)"><path class="r" d="M1157.513,1558.482h-18.426c-2.32-1.26-4.386-4.144-5.04-8.443-.9-5.937-7.553-9.174-8.993-14.03s5.936-11.686,5.936-11.686l1.234-1.59,1.283-1.65,12.23,2.88s.3,2.914.487,6.624a84.717,84.717,0,0,1,.053,8.483c-.359,6.473,1.81,13.447,7.563,14.706C1158.093,1554.705,1157.9,1557.229,1157.513,1558.482Z" transform="translate(-1124.868 -1308.702)"/><path class="r" d="M1394.753,1579.979h-42.139c-2.026-2.474-1.28-11.6-.973-14.579.063-.6.107-.95.107-.95s14.39-11.51,16.366-2.7c.06.277.134.547.214.814,2.49,8.243,13.659,11.989,20.109,13.033C1392.63,1576.279,1394.18,1578.458,1394.753,1579.979Z" transform="translate(-1255.172 -1330.199)"/><path class="f" d="M1352.036,1049.866s-2.185,27.261-4.753,60.03c-3.49,44.514-7.688,99.192-8.1,109.551-.718,17.987-3.6,46.758-3.6,46.758s-6.83,6.835-20.5,3.955c0,0-12.182-41.072-15.662-84.528-.053-.712-.107-1.43-.161-2.148-3.237-44.239-8.271-137.394-8.271-137.394Z" transform="translate(-1220.484 -1035.301)"/><path class="h" d="M1352.036,1049.866s-2.185,27.261-4.753,60.03l-47.865,75.735c-.053-.712-.107-1.43-.161-2.148-3.237-44.239-8.271-137.394-8.271-137.394Z" transform="translate(-1220.484 -1035.301)"/><path class="f" d="M1254.745,1038.471s-39.383,98.728-65.279,145.126-33.988,59.344-33.988,59.344-14.836-5.935-16.185-9.981c0,0,9.9-89.571,27.245-111.406,9.8-12.338,21.31-49.364,21.85-62.312s3.506-38.574,3.506-38.574Z" transform="translate(-1133.17 -1020.668)"/></g><path class="l" d="M1331.236,667.836c-15.39,4.856-42.019-8.25-42.019-8.25s14.19-10.65,13.446-32.792l11.9,9.59,8.083,6.513a96.8,96.8,0,0,1-.917,10.57c-.233,1.77-.523,3.743-.89,5.9A36.827,36.827,0,0,1,1331.236,667.836Z" transform="translate(-1188.56 -589.029)"/><path class="g" d="M1340.815,655.589a96.836,96.836,0,0,1-.917,10.57c-8.956-1.537-19.116-16.013-19.116-16.013a28.534,28.534,0,0,1,11.949-1.07Z" transform="translate(-1206.728 -601.722)"/><path class="l" d="M1337.835,606.84s-25.42,4.223-27.807-11.648-7.274-26.015,8.855-29.383,20.2,2.214,22.286,7.318S1344.386,605.332,1337.835,606.84Z" transform="translate(-1199.042 -553.338)"/><path class="o" d="M1333.686,846.961a2.488,2.488,0,0,1-1.617.616c-5.779-.079-22.632,3.131-36.892,1.667-12.021-1.154-22.662-4.715-34.088-9.837-1.518-.68-5.009-2.544-4.932-4.24.051-1.857.236-4.551.468-7.943.809-11.793,2.218-32.08.844-55.483-.247-4.358-.377-8.681-.393-12.936-.117-31.719,6.172-59.618,18.811-69.06,1.08-.774,7.707,2.465,13.8,5.469a25.2,25.2,0,0,0,16.568,2.006l5.316,4.7c6.474,6.011,13.565,14.181,16.647,26.587,2.623,10.557,4.162,29.6,5.01,49.324.384,8.94.7,17.958.774,26.513v.306c.075.848.075,1.775.075,2.622C1334.381,829.234,1334.072,846.65,1333.686,846.961Z" transform="translate(-1169.53 -625.196)"/><path class="r" d="M1257.261,891.16c.809-11.793,2.218-32.08.844-55.483-.247-4.358-.377-8.681-.394-12.936,5.266-12.772,9.569-22.033,9.569-22.033h13.27S1290.28,867.16,1257.261,891.16Z" transform="translate(-1170.166 -689.133)"/><g transform="translate(0 218.54)"><path class="r" d="M1145.244,1078.272l-56.6-8.065a13.566,13.566,0,0,0-15.3,11.484l-3.5,24.527a13.568,13.568,0,0,0,11.484,15.3l56.6,8.065a13.568,13.568,0,0,0,15.3-11.484l3.495-24.527A13.567,13.567,0,0,0,1145.244,1078.272Z" transform="translate(-1062.216 -1062.717)"/><path class="o" d="M1138.271,1075.608v0a13.629,13.629,0,0,0-9.376-8.19h0a.013.013,0,0,1-.01,0c-.427-.1-.86-.191-1.307-.253l-11.269-1.6.753-5.293a4.483,4.483,0,0,0-3.8-5.067l-2.94-.42-11.833-1.687-2.133-.3a4.486,4.486,0,0,0-5.067,3.8l-.753,5.293-19.453-2.774a13.622,13.622,0,0,0-15.36,11.526l-3.533,24.813a13.617,13.617,0,0,0,11.526,15.356l56.495,8.053a13.257,13.257,0,0,0,2.947.093h.01a13.358,13.358,0,0,0,4.41-1.113,13.605,13.605,0,0,0,7.993-10.51l3.537-24.809A13.476,13.476,0,0,0,1138.271,1075.608Zm-44.209-18.623a1.676,1.676,0,0,1,1.39-1.413,1.713,1.713,0,0,1,.5-.007l2.513.357,9.313,1.33,5.077.723a1.675,1.675,0,0,1,1.42,1.89l-.753,5.293-20.216-2.883Z" transform="translate(-1052.047 -1052.741)"/></g><path class="l" d="M1172.05,1020.441q.021-.453.056-.93c.118-1.582,3.09-5.542,3.09-5.542l-7.452-3.868-2.95,4.876c-4.456,3.546-4.538,3.609-3.726,10.4.7,5.886-3.147,5.956-3.054,10.158s5.507,2.139,5.507,2.139c8.392-3.941,9.087-5.924,8.828-9.92.8,1.13,1.687,1.788,2.444,1.3.667-.433-.664-2.154-1.244-6.139A7.135,7.135,0,0,0,1172.05,1020.441Z" transform="translate(-1113.04 -809.658)"/><path class="o" d="M1171.783,835.56a43.483,43.483,0,0,0,9.959.555s14.186-43.825,16.012-47.828,42.139-51.387,42.139-51.387L1223.1,694.87s-43.6,72.834-48.03,83.068c-7.317,16.911-9.856,54.828-9.856,54.828A18.256,18.256,0,0,0,1171.783,835.56Z" transform="translate(-1117.184 -628.214)"/><path class="o" d="M1305.117,578.14s2.608-.436,2.188-4.029-.415-8.289,2.506-7.414,3.067,3.214,4.267,1.848,1.222-7.12,9.915-7.521,12.225,2.625,16.267.847,4.255-7.895,4.255-7.895a6.956,6.956,0,0,1-2.885,2.879s6.743-9.224-1.064-15.549-15.769-2.185-20.288-1.911c-9.955.6-16.386,1.2-19.638,7.742S1298.728,571.844,1305.117,578.14Z" transform="translate(-1194.151 -537.814)"/></g></g><g transform="translate(1246.111 540.273)"><g class="s" transform="translate(0 0)"><g transform="translate(-0.809 27.814)"><g transform="translate(0 49.704)"><g transform="translate(158.507 6.251)"><path class="g" d="M2079.359,1032.692s-25.723-5.177-30.019-4.769-19.185,7.1-19.353,8.324.572,2.2,3.177,2.307,11.139-1.217,10.623-.165-25.049,6.545-25.192,11.515,13.61,13.841,25.042,14.161,33.529-13.531,35.449-13.749C2095.367,1048.462,2079.359,1032.692,2079.359,1032.692Z" transform="translate(-2018.594 -906.131)"/><g transform="translate(47.243)"><path class="j" d="M2283.93,810.38c-10.048,12.512-18.425,22.214-22.839,25.741a99.439,99.439,0,0,1-13.039,8.543c-36.673,20.7-107.207,41.7-107.207,41.7s-.05-.034-.139-.1a30.817,30.817,0,0,1-8.807-10.586c-2.686-5.433-2.133-8.8-1.335-10.57a4.666,4.666,0,0,1,1.062-1.56s84.524-54.019,91.284-59.645c3.832-3.191,17.716-35.512,29.024-62.913q2.37,3.439,4.594,6.983A238.973,238.973,0,0,1,2283.93,810.38Z" transform="translate(-2129.909 -740.987)"/></g><g transform="translate(162.772 161.972)"><path class="t" d="M2441.191,1125.706q-.8,2.266-1.677,4.5a140.578,140.578,0,0,1-9.874,20.235v0q-3.4,5.779-7.353,11.238a150.318,150.318,0,0,1-20.168,22.68c.04-.565.083-1.131.124-1.694.06-.871.123-1.736.183-2.595q.2-2.854.4-5.606.079-1.068.154-2.116c.322-4.538.629-8.84.915-12.875q.125-1.741.242-3.417c.023-.332.047-.662.07-.991.05-.655.094-1.307.14-1.949.043-.582.083-1.154.123-1.723,0-.06.007-.116.013-.173q.059-.869.12-1.717c.07-.955.136-1.887.2-2.8.04-.569.08-1.128.12-1.68q.089-1.292.177-2.519c.016-.2.03-.4.042-.592.031-.389.056-.778.083-1.157.014-.193.027-.383.04-.569a.572.572,0,0,0,0-.07c.053-.732.1-1.448.154-2.139,0-.037.006-.073.006-.11.036-.506.073-1,.107-1.484.01-.163.023-.323.033-.479.021-.276.041-.549.057-.819.017-.219.033-.439.046-.655.107-1.51.207-2.891.293-4.129.013-.177.027-.353.036-.523s.027-.349.037-.518c.022-.327.046-.643.066-.945.156-2.186.266-3.78.332-4.715.008-.1.014-.187.021-.27,0-.027,0-.053.007-.08.007-.086.01-.163.013-.229.02-.263.03-.4.03-.4Z" transform="translate(-2402.119 -1122.628)"/><path class="g" d="M2441.191,1125.706q-.8,2.266-1.677,4.5a140.578,140.578,0,0,1-9.874,20.235v0q-3.4,5.779-7.353,11.238a150.318,150.318,0,0,1-20.168,22.68c.04-.565.083-1.131.124-1.694.06-.871.123-1.736.183-2.595q.2-2.854.4-5.606.079-1.068.154-2.116c.322-4.538.629-8.84.915-12.875q.125-1.741.242-3.417c.023-.332.047-.662.07-.991.05-.655.094-1.307.14-1.949.043-.582.083-1.154.123-1.723,0-.06.007-.116.013-.173q.059-.869.12-1.717c.07-.955.136-1.887.2-2.8.04-.569.08-1.128.12-1.68q.089-1.292.177-2.519c.016-.2.03-.4.042-.592.031-.389.056-.778.083-1.157.014-.193.027-.383.04-.569a.572.572,0,0,0,0-.07c.053-.732.1-1.448.154-2.139,0-.037.006-.073.006-.11.036-.506.073-1,.107-1.484.01-.163.023-.323.033-.479.021-.276.041-.549.057-.819.017-.219.033-.439.046-.655.107-1.51.207-2.891.293-4.129.013-.177.027-.353.036-.523s.027-.349.037-.518c.022-.327.046-.643.066-.945.156-2.186.266-3.78.332-4.715.008-.1.014-.187.021-.27,0-.027,0-.053.007-.08.007-.086.01-.163.013-.229.02-.263.03-.4.03-.4Z" transform="translate(-2402.119 -1122.628)"/></g><path class="m" d="M2445.75,846.656a134.616,134.616,0,0,1-5.579,68.851q-.8,2.266-1.677,4.5a140.578,140.578,0,0,1-9.875,20.234v0q-3.4,5.779-7.352,11.238c-7.536-1.087-13.667-1.979-17.447-2.075a4.891,4.891,0,0,1-.948-.13,4.944,4.944,0,0,1-2.239-1.214c-.749-.649-.04-35.465,2.255-79.317.067-1.69.133-3.55.353-5.23l.016-.619q.214-4.342.456-8.766.144-2.55.3-5.124c.708-11.694,1.586-23.657,2.541-35.588q.14-1.718.272-3.427c1.508-18.361,3.278-36.41,5.367-52.556a238.972,238.972,0,0,1,27.4,62.41Q2443.3,832.931,2445.75,846.656Z" transform="translate(-2238.328 -750.458)"/></g><path class="u" d="M1695.438,893.494c-.42-12.277-1.045-26.9-1.87-42.691-.066-1.69-.14-3.55-.353-5.23l-.026-.619c-.067-1.4-.133-2.807-.207-4.222-.039-.8-.083-1.6-.126-2.4q-.19-3.607-.416-7.269c-.709-11.694-1.591-23.657-2.535-35.588-.1-1.145-.19-2.289-.283-3.427-1.39-17.011-3.011-33.752-4.907-48.959v-.007c-.014-.086-.024-.169-.034-.256-.236-1.91-.486-3.806-.732-5.666-.5-3.749-1.011-7.392-1.547-10.9q-1.1,1.8-2.162,3.626-6.289,10.75-11.728,22.53a359.883,359.883,0,0,0-18.947,51.445c-.033.116-.067.229-.1.346a111.6,111.6,0,0,0-3.59,17.593v0c-.1.822-.193,1.646-.273,2.469v0c-2.525,26.169,4.931,50.659,19.09,72.54.482.755.981,1.508,1.487,2.256q1.5,2.229,3.1,4.424,1.123,1.553,2.3,3.085c.16.216.326.429.5.645a179.189,179.189,0,0,0,18.155,20.052q1.618,1.542,3.277,3.06c.273.249.553.5.828.752a5.321,5.321,0,0,0,1.491-.968C1696.3,929.7,1696.186,915.3,1695.438,893.494Z" transform="translate(-1645.117 -726.259)"/><path class="v" d="M1696.467,928.967c-19.719-20.664-36.154-46.025-49.562-71.692v0a111.579,111.579,0,0,1,3.59-17.593c.033-.117.067-.23.1-.346a359.869,359.869,0,0,1,18.947-51.445c12.1,17.3,20.587,33.223,21.109,39.634.093,1.138.183,2.282.283,3.427.944,11.93,1.826,23.893,2.535,35.588q.225,3.658.416,7.269c.043.8.087,1.6.126,2.4.073,1.414.14,2.821.207,4.222l.026.619c.213,1.68.286,3.54.353,5.23C1695.422,902.069,1696.047,916.69,1696.467,928.967Z" transform="translate(-1646.146 -761.732)"/><g transform="translate(4.449 3.626)"><path class="l" d="M1961.9,1042.827s26.238.026,30.369,1.278,17.4,10.762,17.317,12-1,2.042-3.571,1.631-10.677-3.4-10.379-2.268,23.254,11.382,22.408,16.281-16.083,10.867-27.352,8.914-30.181-19.911-32.019-20.506C1943.085,1055.11,1961.9,1042.827,1961.9,1042.827Z" transform="translate(-1826.489 -912.099)"/><path class="u" d="M1795.766,874.488a30.848,30.848,0,0,1-7.586,8.58,21.9,21.9,0,0,1-2.075,1.463s-50.49-18.9-87.089-38.881c-12.1-6.6-22.677-13.325-29.413-19.516-3.044-2.8-7.981-9.043-14-17.357a359.886,359.886,0,0,1,18.947-51.445q5.45-11.757,11.728-22.53c1.46,4.349,2.964,8.793,4.474,13.2v.007c8.018,23.388,16.235,45.808,19.163,48.606,6.355,6.082,86.96,65.79,86.96,65.79a5.618,5.618,0,0,1,1.328,3.181C1798.461,867.554,1798.1,870.485,1795.766,874.488Z" transform="translate(-1655.599 -734.803)"/></g></g></g></g></g></g></svg>